<?xml version="1.0" encoding="utf-8" ?><svg xmlns="http://www.w3.org/2000/svg" xmlns:xlink="http://www.w3.org/1999/xlink" width="504" height="450" viewBox="0 0 504 450"><path fill="white" d="M0 0L504 0L504 450L0 450L0 0Z"/><path fill="#1F1F1F" d="M304.944 61.5294C305.869 61.9069 310.306 62.4868 312.249 63.1303C330.223 69.0843 326.557 75.1511 333.453 89.5501C330.254 100.154 326.77 110.434 324.7 121.345C324.127 124.365 323.422 127.776 322.482 130.689C322.663 131.408 323.03 132.711 323.321 133.356C323.775 134.386 324.561 135.234 325.553 135.765C327.983 137.064 332.631 138.622 335.399 139.645L351.972 145.812L382.944 157.395C388.679 159.539 394.912 162.005 400.68 163.948C402.032 168.183 403.684 171.512 403.657 176.115C403.632 180.437 402.163 187.142 398.92 190.224C397.069 191.984 394.469 192.954 392.09 193.756C370.004 201.202 341.779 181.098 318.725 180.331C313.213 186.508 312.756 187.418 310.946 195.487C308.73 205.363 307.247 215.419 304.953 225.255C302.621 235.255 297.573 245.034 293.77 254.557C291.049 260.448 289.241 266.81 285.537 272.183C279.115 281.5 270.125 280.165 261.932 274.131C260.754 270.227 258.281 266.442 258.414 262.008C258.602 258.611 259.556 254.911 260.451 251.613C265.29 233.779 266.606 215.33 269.32 197.122C270.134 191.661 272.012 186.52 272.769 180.843C273.452 175.716 273.163 170.788 273.717 165.86C273.145 164.705 272.497 163.513 271.897 162.365C268.747 160.969 265.599 159.866 262.418 158.376C255.924 155.336 249.561 152.107 242.706 149.965C238.011 148.498 233.446 148.469 228.758 147.227C213.838 141.374 198.75 136.558 183.564 131.485C183.342 131.405 183.118 131.328 182.894 131.253C169.68 126.959 153.684 122.626 139.998 121.682C133.631 121.243 124.727 129.912 123.44 135.996C122.446 140.695 121.687 144.401 121.2 149.167C120.383 157.156 118.888 164.704 123.319 172.038C124.652 175.259 126.665 177.825 128.526 180.642C132.473 186.617 134.618 187.936 140.741 191.301C151.164 197.029 164.658 205.989 159.356 219.866C158.136 223.06 157.381 226.48 153.703 228.178C148.378 230.356 139.214 230.073 133.51 228.906C129.825 227.608 116.632 219.409 114.092 216.892C108.334 211.186 93.6187 195.417 90.6067 188.784C82.6968 171.364 83.538 148.175 84.2364 129.502C84.5398 123.024 83.3881 114.616 85.8335 108.548C92.0228 93.1884 101.223 84.7839 117.783 83.0687C128.369 81.9723 138.772 78.7305 149.918 80.6425C156.83 81.8282 161.362 84.5593 167.915 86.4287C187.456 91.7375 206.748 97.3542 225.867 104.027C232.987 106.512 239.637 109.776 246.45 112.24C254.157 115.029 264.211 117.995 272.369 118.046C273.284 118.052 276.391 118.128 276.955 117.604C281.043 113.271 279.548 103.077 280.179 98.2476C281.028 91.7516 280.456 82.1726 281.886 76.4827C283.887 68.5188 298.123 65.2206 304.944 61.5294Z"/><path fill="#1F1F1F" d="M361.297 258.159C365.979 259.314 372.138 259.911 375.207 263.424C375.24 264.743 375.35 265.911 375.472 267.221C377.302 268.226 378.867 269.393 380.828 270.305C384.646 272.083 388.919 273.164 391.944 276.284C395.364 279.81 398.182 284.552 400.741 288.746C403.715 293.638 406.654 298.551 409.559 303.484C411.502 306.818 413.003 309.705 415.121 312.979L426.656 330.603C429.373 334.82 432.1 339.238 434.914 343.408C437.652 347.466 442.17 351.776 444.774 355.994C446.102 358.144 451.307 366.322 450.816 368.653C450.426 370.506 446.831 374.639 445.006 375.588C439.803 378.295 429.623 377.764 424.318 376.057C418.961 374.333 410.2 365.004 406.678 360.549C403.92 357.061 400.028 350.239 397.348 346.295C395.049 342.912 391.234 337.044 389.503 333.474C388.477 335.541 387.552 337.934 386.817 340.127C381.951 354.643 374.006 367.508 364.578 379.289C350.927 394.784 335.885 403.461 315.15 406.432C307.224 407.567 292.935 405.465 286.236 401.172C275.375 394.212 263.828 381.044 259.633 368.681C258.02 363.817 257.436 351.893 257.782 346.876C258.448 337.233 262.948 325.6 267.359 316.986C271.106 309.669 276.613 302.399 281.412 295.732C285.801 290.07 290.101 283.692 295.32 278.778C313.135 262.008 338.094 261.399 360.907 258.3C361.037 258.253 361.167 258.206 361.297 258.159Z"/><path fill="white" d="M364.382 280.565L364.81 280.627C365.901 282.774 365.908 291.914 366.173 294.705C367.312 306.694 365.355 318.658 360.919 329.827C359.793 332.661 358.721 335.745 357.253 338.449C347.509 354.489 332.589 369.349 313.311 372.275C305.947 373.393 300.877 371.21 295.297 366.873C290.442 362.034 284.73 352.623 287.803 345.575C289.241 342.276 290.813 338.988 292.15 335.665C297.748 321.74 305.37 308.45 317.352 299.056C321.332 295.943 327.911 293.233 332.871 291.537C343.474 287.912 354.137 285.284 364.382 280.565Z"/><path fill="#1F1F1F" d="M220.813 192.083C235.887 191.188 241.823 219.387 239.688 230.521C239.171 233.221 236.518 238.764 235.415 241.628C230.189 255.19 224.09 268.41 218.917 282.001C211.6 303.253 205.319 324.186 198.471 345.649C194.808 357.127 189.592 376.023 182.382 385.559C176.658 393.13 153.883 389.914 151.153 379.823C150.952 379.078 150.445 377.997 150.471 377.144C150.839 372.685 151.453 368.243 151.788 363.774C151.839 363.079 154.058 357.322 154.335 356.589L158.866 344.775C161.177 338.814 163.991 330.654 166.449 325.08L165.629 321.95C160.969 324.33 158.048 327.696 153.914 330.657C145.293 336.932 135.887 342.051 125.937 345.884C120.646 347.773 115.246 349.43 109.667 350.168C90.0011 352.771 69.4021 345.59 53.8429 333.654C47.3089 328.641 44.082 325.342 43.028 316.812C42.3922 311.667 45.1225 305.541 48.2407 301.581C51.0503 298.014 61.7411 296.246 66.0528 297.755C69.2816 298.886 72.18 301.199 75.1365 302.891C86.5731 309.434 97.0302 314.031 110.633 312.37C123.214 310.833 134.805 303.696 145.264 296.933C149.56 294.156 153.941 291.377 157.884 288.107C161.574 285.047 164.99 281.515 168.495 278.23C171.635 275.287 175.052 272.304 177.572 268.793C182.657 261.711 190.315 239.786 191.628 230.978C192.932 222.236 191.998 216.165 198.039 208.542C202.139 203.367 211.503 195.262 217.467 192.822C218.563 192.374 219.646 192.225 220.813 192.083Z"/></svg>