<svg version="1.1" id="Layer_1" xmlns="http://www.w3.org/2000/svg" xmlns:xlink="http://www.w3.org/1999/xlink" x="0px" y="0px"
	 width="100%" viewBox="0 0 1024 1024" enable-background="new 0 0 1024 1024" xml:space="preserve">
<path fill="#000000" opacity="1.000000" stroke="none" 
	d="
M348.817932,591.374390 
	C342.665894,587.480408 337.836578,582.745911 334.468536,576.866272 
	C331.413788,577.263733 330.708740,579.588562 329.337341,581.129028 
	C319.381073,592.312866 307.715088,599.232117 292.002777,596.490112 
	C277.518921,593.962524 269.226685,585.457581 266.653015,570.884277 
	C264.191803,556.947998 266.609863,543.344055 269.151917,529.792725 
	C276.397827,491.165985 286.695892,453.293701 297.796478,415.623230 
	C299.810455,408.788788 305.308380,407.634033 310.941895,406.846680 
	C315.888885,406.155304 320.907898,406.562653 325.820404,407.766327 
	C331.475250,409.151825 332.682251,411.081665 330.934937,416.700806 
	C321.097870,448.335815 313.146759,480.461212 306.034454,512.797974 
	C302.930450,526.910400 299.490570,541.011658 299.398712,555.580139 
	C299.364899,560.938110 299.621460,566.885864 305.619904,569.151123 
	C311.645142,571.426453 316.155609,567.597107 320.004364,563.448608 
	C324.504059,558.598511 326.763275,553.301392 327.034882,546.118347 
	C328.043304,519.451233 336.450684,495.559235 358.597229,478.871948 
	C374.605072,466.810120 392.594421,464.226868 411.438568,472.057831 
	C421.012726,476.036530 427.096100,483.709412 431.326447,492.883362 
	C433.122375,496.778015 434.365479,500.927643 436.086823,505.574158 
	C441.484100,502.969238 444.964172,498.802551 448.300629,494.584198 
	C450.566772,491.719116 452.348145,488.476257 454.463562,485.485321 
	C460.943054,476.324097 470.016571,473.286133 480.741455,475.008606 
	C489.281616,476.380219 494.848694,483.323669 495.311096,492.245544 
	C495.791138,501.508209 493.554047,510.398682 491.865356,519.385376 
	C489.502472,531.959778 486.345490,544.426025 486.202820,557.334656 
	C486.159485,561.255798 486.187683,565.406982 490.416901,567.215454 
	C495.005188,569.177612 498.534729,566.367676 501.409058,563.261047 
	C507.459991,556.721130 510.246948,548.456665 512.709595,540.132019 
	C516.680969,526.707336 519.292114,512.999329 520.756592,499.074371 
	C521.191406,494.940186 523.125122,491.894714 527.056702,490.201538 
	C533.385986,487.475769 539.950745,486.882141 546.616272,488.321899 
	C552.427551,489.577118 553.825439,491.757477 552.671021,497.636688 
	C550.140930,510.522186 547.429810,523.372070 544.810486,536.240112 
	C543.308350,543.619446 542.937988,551.083069 543.182373,558.594116 
	C543.311890,562.577637 543.893250,566.576416 547.949097,568.307007 
	C552.398926,570.205811 556.536072,568.506409 559.886292,565.384460 
	C565.798645,559.874939 568.695496,552.515198 571.424133,545.175903 
	C574.980774,535.609558 576.930908,525.657227 577.559326,515.467102 
	C578.041626,507.646667 575.572388,500.353546 573.328918,493.037598 
	C571.964722,488.588959 570.175232,484.240021 570.413879,479.453522 
	C570.914795,469.403809 578.457214,463.783447 588.272339,466.153625 
	C596.017578,468.023895 600.233521,473.607727 603.117126,480.481934 
	C607.968262,492.046936 608.143677,504.272491 607.128418,516.402283 
	C605.165222,539.858398 597.392517,561.185181 581.899719,579.296387 
	C572.929138,589.782959 561.590820,596.041077 547.772827,596.869751 
	C536.191406,597.564270 527.061707,592.824646 521.129211,582.580566 
	C519.897095,580.452881 518.776001,578.260864 517.275940,575.493896 
	C513.139832,579.925842 510.276398,584.658203 505.890564,588.015564 
	C497.701355,594.284241 488.569153,597.253723 478.344360,596.107117 
	C465.794983,594.699829 457.341278,585.027832 455.707458,570.684937 
	C453.969208,555.424988 456.937958,540.516724 459.105316,525.545837 
	C459.832245,520.524536 461.378113,515.545044 460.335571,509.980621 
	C457.160522,510.876923 455.650513,513.447388 453.548462,515.167725 
	C450.971619,517.276672 448.850006,520.206604 445.963013,521.621643 
	C437.702576,525.670410 435.956970,532.979858 434.206207,541.033325 
	C430.241974,559.268799 422.062378,575.349915 406.351807,586.336487 
	C388.418640,598.877441 369.211548,600.796265 348.817932,591.374390 
M393.950226,534.842163 
	C380.670166,531.520081 372.461243,523.023438 369.362671,509.903320 
	C366.652466,510.288330 366.102814,511.996246 365.380493,513.418396 
	C359.456146,525.082581 358.086456,537.624878 359.760071,550.290894 
	C360.820435,558.315918 363.951660,566.152954 373.224945,568.259521 
	C382.835358,570.442627 389.904449,565.896973 395.546570,558.469543 
	C398.079590,555.135010 400.120514,551.570618 401.654266,547.665039 
	C405.809540,537.084106 405.850220,537.100098 393.950226,534.842163 
M395.559509,493.087006 
	C391.355255,493.394470 389.525421,496.174225 388.711395,499.850403 
	C387.110870,507.077972 397.376831,517.191833 404.778564,515.799316 
	C406.323151,515.508728 407.027771,514.645203 407.425049,513.246033 
	C409.278625,506.717804 403.002625,495.327240 395.559509,493.087006 
z"/>
<path fill="#000000" opacity="1.000000" stroke="none" 
	d="
M545.482727,399.450500 
	C554.458191,396.271454 562.311523,392.041809 568.267700,384.892303 
	C570.499512,382.213318 573.210632,380.823364 576.635132,382.009094 
	C580.164917,383.231293 581.809509,386.140503 582.182007,389.663483 
	C582.752258,395.057343 581.023315,399.885376 577.820374,404.152435 
	C568.909485,416.023651 556.056641,421.540192 542.349548,425.048157 
	C519.534485,430.887054 496.302185,431.325897 472.897736,429.532928 
	C423.208710,425.726410 376.398529,410.587158 329.934998,393.917084 
	C299.177277,382.881866 268.109406,372.593628 235.372726,369.738251 
	C216.706635,368.110138 197.718201,367.146210 179.550140,374.234436 
	C165.415710,379.748901 154.582230,388.485443 151.297775,404.027740 
	C147.020325,424.269135 157.584610,438.406860 178.172180,440.641937 
	C187.567902,441.661987 190.250839,446.306152 186.592041,455.216705 
	C181.344070,467.997406 165.921463,475.493896 150.291977,472.861115 
	C126.947876,468.928772 109.505737,450.929169 105.985458,425.621002 
	C101.693542,394.765320 111.725372,369.393982 137.683945,351.398163 
	C152.051544,341.437744 168.482910,336.601288 185.793976,334.671051 
	C218.550232,331.018677 250.068100,337.453857 281.287659,346.345093 
	C312.231903,355.157928 342.006317,367.332123 372.304443,378.002747 
	C402.490082,388.633820 433.041687,398.084412 464.878571,402.242737 
	C491.698883,405.745880 518.603271,407.482849 545.482727,399.450500 
z"/>
<path fill="#000000" opacity="1.000000" stroke="none" 
	d="
M126.310760,621.983276 
	C109.686386,613.207153 102.160210,597.176514 105.126030,578.182312 
	C108.860321,554.266541 121.882469,535.884155 139.032959,519.760742 
	C153.145370,506.493439 169.326309,496.343231 186.647659,488.009186 
	C192.486542,485.199921 195.337906,481.266479 196.859741,475.102966 
	C201.811111,455.049622 207.852463,435.312958 216.540253,416.499237 
	C220.264389,408.434479 224.893066,400.960327 231.486938,394.846680 
	C241.022125,386.005890 252.231262,383.343140 264.795807,385.834534 
	C267.407471,386.352356 270.214752,387.123932 270.953796,390.188843 
	C271.610382,392.911804 269.390930,394.438904 267.681244,395.940247 
	C256.148590,406.067383 249.811249,419.407074 244.556076,433.374542 
	C240.395081,444.433807 236.596039,455.621490 234.024506,467.185913 
	C233.703171,468.630920 232.982803,470.012146 234.065186,472.107452 
	C242.029968,471.163177 250.268524,470.483246 258.549133,470.661957 
	C267.670410,470.858765 269.840179,473.237762 268.376434,482.272156 
	C267.954163,484.878418 267.282837,487.496521 266.324371,489.952576 
	C264.449158,494.757843 260.904510,497.440491 255.573044,497.285217 
	C247.889969,497.061401 240.307602,497.974701 232.691742,498.861633 
	C227.228149,499.497925 225.294952,502.326691 224.287750,507.430939 
	C220.844223,524.881897 217.320343,542.334717 213.097763,559.608521 
	C209.735764,573.361816 205.076431,586.760803 197.210876,598.768494 
	C181.890320,622.157043 151.784882,632.132751 126.310760,621.983276 
M135.360519,582.842102 
	C137.353470,595.445801 152.217911,596.730591 159.981842,589.295105 
	C164.024323,585.423584 166.614594,580.592102 168.837036,575.522766 
	C175.415558,560.517273 179.318359,544.661438 183.462326,528.902100 
	C184.391861,525.367065 186.256683,521.760254 185.247589,517.921326 
	C183.363052,517.086243 182.081558,518.101868 180.866898,518.854614 
	C168.768387,526.352600 157.195374,534.625977 148.891464,546.371948 
	C141.388901,556.984497 134.185776,567.973572 135.360519,582.842102 
z"/>
<path fill="#000000" opacity="1.000000" stroke="none" 
	d="
M732.026489,493.700439 
	C738.288452,482.900940 745.742920,474.005676 758.456604,471.310638 
	C763.978699,470.140076 769.372986,470.401733 774.668884,472.359619 
	C781.938904,475.047302 785.499023,480.576630 785.762695,488.032379 
	C786.016541,495.211060 784.510925,502.033234 778.490356,506.842102 
	C776.029785,508.807434 773.236633,509.221405 770.061157,507.880310 
	C758.304321,502.915314 751.564148,505.014008 743.832153,515.378845 
	C735.563416,526.463257 731.477783,539.268066 728.369080,552.448364 
	C726.117737,561.993347 724.317932,571.644409 722.287231,581.241943 
	C720.059753,591.769287 716.333862,594.836731 705.487488,595.135620 
	C704.654907,595.158508 703.816528,595.191772 702.988464,595.125244 
	C692.417847,594.276672 684.668701,592.842163 688.608093,579.584412 
	C688.875671,578.683960 688.643066,577.634949 688.643066,575.154236 
	C683.863037,580.692200 679.556946,584.955078 674.510803,588.387939 
	C667.334106,593.270264 659.496582,596.277222 650.879578,597.159180 
	C632.562073,599.033997 620.311584,588.387573 618.613403,569.800720 
	C617.337280,555.833313 619.506104,542.244446 622.239380,528.716003 
	C625.399841,513.072998 629.042480,497.527527 632.448608,481.933807 
	C632.799255,480.328674 632.964478,478.683075 633.199707,477.160217 
	C631.533875,475.471497 629.419067,475.461639 627.559753,474.831848 
	C624.546570,473.811249 621.549133,472.762390 619.326233,470.327545 
	C617.580200,468.415009 616.146118,466.318665 617.434387,463.602264 
	C618.603210,461.137878 620.915344,461.478546 623.098999,461.557709 
	C636.939270,462.059631 636.914307,462.046692 640.372864,448.568390 
	C642.398376,440.674835 644.524231,432.807068 646.595398,424.925201 
	C647.447327,421.683258 649.273376,419.132019 652.296082,417.703094 
	C661.066528,413.557098 670.004089,413.589478 678.948486,417.107788 
	C681.631287,418.163055 682.591370,420.111084 681.772888,423.125671 
	C679.072449,433.072021 676.696899,443.107941 673.905762,453.027618 
	C672.730042,457.206207 673.554749,458.996216 678.138855,458.709015 
	C680.938477,458.533600 683.811401,458.352875 686.578552,459.227264 
	C689.648804,460.197418 691.995361,461.864960 692.243042,465.397614 
	C692.490295,468.923065 690.508545,471.079437 687.495178,472.261597 
	C683.143616,473.968689 678.602844,475.037170 673.935120,475.480652 
	C670.079163,475.846954 667.952026,477.461487 666.965942,481.691223 
	C661.719788,504.195770 655.785156,526.548340 652.760864,549.513916 
	C652.108398,554.468384 651.782166,559.440918 653.130310,564.381226 
	C654.095581,567.918823 656.344543,569.573120 659.947510,569.865906 
	C665.852844,570.345825 671.089600,568.419128 674.924927,564.278198 
	C692.699707,545.087036 701.453552,522.701843 697.855042,496.250275 
	C697.611572,494.460297 697.013245,492.690796 696.378113,490.986969 
	C694.080200,484.822205 695.141235,481.956787 701.100220,478.960236 
	C704.398376,477.301697 707.935486,476.255066 711.580811,475.804535 
	C720.606689,474.688995 726.223083,478.537903 728.571167,487.404266 
	C729.321960,490.239502 729.761841,493.157074 730.465759,496.639435 
	C731.119873,495.400024 731.494934,494.689423 732.026489,493.700439 
z"/>
<path fill="#000000" opacity="1.000000" stroke="none" 
	d="
M866.752563,480.741089 
	C868.552490,482.635345 869.639343,481.717896 870.452087,480.212952 
	C875.342224,471.157898 892.192261,472.173218 899.713684,476.104736 
	C902.391052,477.504211 902.789917,479.774292 902.458191,482.457764 
	C901.673279,488.807648 899.255127,494.670807 897.107544,500.613312 
	C891.447205,516.275818 886.285217,532.085999 882.888855,548.420288 
	C881.932068,553.021790 881.658081,557.683105 882.347046,562.330627 
	C883.479187,569.967529 889.961548,572.462708 895.855591,567.436279 
	C898.109436,565.514221 899.821594,562.964478 901.831848,560.747192 
	C904.257874,558.071167 906.990967,555.376099 910.843140,557.478699 
	C914.254395,559.340576 914.234619,562.819458 913.543457,566.312378 
	C909.408447,587.210205 886.580017,602.020813 867.261963,596.354065 
	C858.969238,593.921448 853.318359,588.836121 850.710876,580.504395 
	C850.377136,579.437988 849.880310,578.422546 849.354187,577.124817 
	C845.977234,580.289673 843.016968,583.419434 839.699707,586.108826 
	C828.067871,595.539001 814.746277,599.437500 799.995789,596.564636 
	C784.221375,593.492249 774.307983,582.233582 773.804810,566.253967 
	C772.656616,529.791748 787.705872,501.368134 818.253418,481.611755 
	C829.136108,474.573486 841.564392,472.004761 854.667480,474.524750 
	C859.220032,475.400299 863.166565,477.347443 866.752563,480.741089 
M827.632019,511.136200 
	C816.142761,523.608215 809.436035,538.175842 809.451355,555.258972 
	C809.462341,567.539551 818.687866,572.697266 829.679443,567.160095 
	C832.558228,565.709839 835.064087,563.790955 837.088684,561.338196 
	C849.579895,546.205322 856.386475,528.856995 856.833740,509.194366 
	C856.999023,501.925720 853.681335,499.103027 846.487000,500.251343 
	C839.164612,501.420105 833.252625,505.401947 827.632019,511.136200 
z"/>
</svg>